<svg xmlns="http://www.w3.org/2000/svg" version="1.1">
<rect x="0" y="0" width="100" height="20" style="fill:white;stroke:black;stroke-width:2"/>
<text x="50" y="15" text-anchor="middle" style="font-family: Arial, Helvetica, sans-serif">
(x36,1)</text>
<line x1="50" y1="20" x2="50" y2="800" style="stroke:black;stroke-width:2" />
<rect x="25" y="800" width="50" height="10" style="fill:black;stroke:black;stroke-width:2"/>
<rect x="3012" y="0" width="100" height="20" style="fill:white;stroke:black;stroke-width:2"/>
<text x="3062" y="15" text-anchor="middle" style="font-family: Arial, Helvetica, sans-serif">
i</text>
<line x1="3062" y1="20" x2="3062" y2="800" style="stroke:black;stroke-width:2" />
<rect x="3037" y="800" width="50" height="10" style="fill:black;stroke:black;stroke-width:2"/>
<rect x="6024" y="0" width="100" height="20" style="fill:white;stroke:black;stroke-width:2"/>
<text x="6074" y="15" text-anchor="middle" style="font-family: Arial, Helvetica, sans-serif">
(x38,1)</text>
<line x1="6074" y1="20" x2="6074" y2="800" style="stroke:black;stroke-width:2" />
<rect x="6049" y="800" width="50" height="10" style="fill:black;stroke:black;stroke-width:2"/>
<rect x="9036" y="0" width="100" height="20" style="fill:white;stroke:black;stroke-width:2"/>
<text x="9086" y="15" text-anchor="middle" style="font-family: Arial, Helvetica, sans-serif">
(a,1)</text>
<line x1="9086" y1="20" x2="9086" y2="800" style="stroke:black;stroke-width:2" />
<rect x="9061" y="800" width="50" height="10" style="fill:black;stroke:black;stroke-width:2"/>
<rect x="12048" y="0" width="100" height="20" style="fill:white;stroke:black;stroke-width:2"/>
<text x="12098" y="15" text-anchor="middle" style="font-family: Arial, Helvetica, sans-serif">
icanproducesecretOrderDesc(1)</text>
<line x1="12098" y1="20" x2="12098" y2="800" style="stroke:black;stroke-width:2" />
<rect x="12073" y="800" width="50" height="10" style="fill:black;stroke:black;stroke-width:2"/>
<line x1="50.0" y1="50" x2="3062.0" y2="50" style="stroke:black;stroke-width:2" />
<line x1="3052.0" y1="40" x2="3062.0" y2="50" style="stroke:black;stroke-width:2" />
<line x1="3052.0" y1="60" x2="3062.0" y2="50" style="stroke:black;stroke-width:2" />
<text x="1556.0" y="45" text-anchor="middle" style="font-family: Arial, Helvetica, sans-serif"> {{PurchAmt(1),OrderDesc(1)}_inv(authChCr(x36))}_(confChCr(i))</text>
<line x1="3062.0" y1="100" x2="6074.0" y2="100" style="stroke:black;stroke-width:2" />
<line x1="6064.0" y1="90" x2="6074.0" y2="100" style="stroke:black;stroke-width:2" />
<line x1="6064.0" y1="110" x2="6074.0" y2="100" style="stroke:black;stroke-width:2" />
<text x="4568.0" y="95" text-anchor="middle" style="font-family: Arial, Helvetica, sans-serif"> {{PurchAmt(1),OrderDesc(1)}_inv(authChCr(x36))}_(confChCr(x38))</text>
<line x1="3062.0" y1="150" x2="6074.0" y2="150" style="stroke:black;stroke-width:2" />
<line x1="3072.0" y1="140" x2="3062.0" y2="150" style="stroke:black;stroke-width:2" />
<line x1="3072.0" y1="160" x2="3062.0" y2="150" style="stroke:black;stroke-width:2" />
<text x="4568.0" y="145" text-anchor="middle" style="font-family: Arial, Helvetica, sans-serif"> {{empty}_inv(authChCr(x38))}_(confChCr(x36))</text>
<line x1="3062.0" y1="200" x2="6074.0" y2="200" style="stroke:black;stroke-width:2" />
<line x1="6064.0" y1="190" x2="6074.0" y2="200" style="stroke:black;stroke-width:2" />
<line x1="6064.0" y1="210" x2="6074.0" y2="200" style="stroke:black;stroke-width:2" />
<text x="4568.0" y="195" text-anchor="middle" style="font-family: Arial, Helvetica, sans-serif"> x606,x408</text>
<line x1="3062.0" y1="250" x2="6074.0" y2="250" style="stroke:black;stroke-width:2" />
<line x1="3072.0" y1="240" x2="3062.0" y2="250" style="stroke:black;stroke-width:2" />
<line x1="3072.0" y1="260" x2="3062.0" y2="250" style="stroke:black;stroke-width:2" />
<text x="4568.0" y="245" text-anchor="middle" style="font-family: Arial, Helvetica, sans-serif"> {x606,NxXID(3),x408,NxChallM(3)}_inv(sk(x38))</text>
<line x1="3062.0" y1="300" x2="6074.0" y2="300" style="stroke:black;stroke-width:2" />
<line x1="6064.0" y1="290" x2="6074.0" y2="300" style="stroke:black;stroke-width:2" />
<line x1="6064.0" y1="310" x2="6074.0" y2="300" style="stroke:black;stroke-width:2" />
<text x="4568.0" y="295" text-anchor="middle" style="font-family: Arial, Helvetica, sans-serif"> hash(x606,NxXID(3),hash(OrderDesc(1),PurchAmt(1)),PurchAmt(1),x38,hash(NxXID(3),pan(i,a)),pan(i,a)),hash(x606,NxXID(3),x408,hash(OrderDesc(1),PurchAmt(1)),NxChallM(3)),{x606,NxXID(3),hash(OrderDesc(1),PurchAmt(1)),PurchAmt(1),x38,hash(NxXID(3),pan(i,a)),hash(x606,NxXID(3),x408,hash(OrderDesc(1),PurchAmt(1)),NxChallM(3)),pan(i,a)}_(pk(a)),x606,NxXID(3),x408,hash(OrderDesc(1),PurchAmt(1)),NxChallM(3),hash(x606,NxXID(3),hash(OrderDesc(1),PurchAmt(1)),PurchAmt(1),x38,hash(NxXID(3),pan(i,a)),pan(i,a))</text>
<line x1="3062.0" y1="350" x2="6074.0" y2="350" style="stroke:black;stroke-width:2" />
<line x1="3072.0" y1="340" x2="3062.0" y2="350" style="stroke:black;stroke-width:2" />
<line x1="3072.0" y1="360" x2="3062.0" y2="350" style="stroke:black;stroke-width:2" />
<text x="4568.0" y="345" text-anchor="middle" style="font-family: Arial, Helvetica, sans-serif"> {{x606,NxXID(3),hash(x606,NxXID(3),x408,hash(OrderDesc(1),PurchAmt(1)),NxChallM(3)),hash(OrderDesc(1),PurchAmt(1)),hash(x606,NxXID(3),hash(OrderDesc(1),PurchAmt(1)),PurchAmt(1),x38,hash(NxXID(3),pan(i,a)),pan(i,a)),hash(x606,NxXID(3),x408,hash(OrderDesc(1),PurchAmt(1)),NxChallM(3)),{x606,NxXID(3),hash(OrderDesc(1),PurchAmt(1)),PurchAmt(1),x38,hash(NxXID(3),pan(i,a)),hash(x606,NxXID(3),x408,hash(OrderDesc(1),PurchAmt(1)),NxChallM(3)),pan(i,a)}_(pk(a))}_inv(sk(x38))}_(pk(a))</text>
<line x1="3062.0" y1="400" x2="9086.0" y2="400" style="stroke:black;stroke-width:2" />
<line x1="9076.0" y1="390" x2="9086.0" y2="400" style="stroke:black;stroke-width:2" />
<line x1="9076.0" y1="410" x2="9086.0" y2="400" style="stroke:black;stroke-width:2" />
<text x="6074.0" y="395" text-anchor="middle" style="font-family: Arial, Helvetica, sans-serif"> {{x606,NxXID(3),hash(x606,NxXID(3),x408,hash(OrderDesc(1),PurchAmt(1)),NxChallM(3)),hash(OrderDesc(1),PurchAmt(1)),hash(x606,NxXID(3),hash(OrderDesc(1),PurchAmt(1)),PurchAmt(1),x38,hash(NxXID(3),pan(i,a)),pan(i,a)),hash(x606,NxXID(3),x408,hash(OrderDesc(1),PurchAmt(1)),NxChallM(3)),{x606,NxXID(3),hash(OrderDesc(1),PurchAmt(1)),PurchAmt(1),x38,hash(NxXID(3),pan(i,a)),hash(x606,NxXID(3),x408,hash(OrderDesc(1),PurchAmt(1)),NxChallM(3)),pan(i,a)}_(pk(a))}_inv(sk(x38))}_(pk(a))</text>
<line x1="3062.0" y1="450" x2="9086.0" y2="450" style="stroke:black;stroke-width:2" />
<line x1="3072.0" y1="440" x2="3062.0" y2="450" style="stroke:black;stroke-width:2" />
<line x1="3072.0" y1="460" x2="3062.0" y2="450" style="stroke:black;stroke-width:2" />
<text x="6074.0" y="445" text-anchor="middle" style="font-family: Arial, Helvetica, sans-serif"> {{x38,x606,NxXID(3),PurchAmt(1),NxAuthCode(5)}_inv(sk(a))}_(pk(x38))</text>
<line x1="3062.0" y1="500" x2="6074.0" y2="500" style="stroke:black;stroke-width:2" />
<line x1="6064.0" y1="490" x2="6074.0" y2="500" style="stroke:black;stroke-width:2" />
<line x1="6064.0" y1="510" x2="6074.0" y2="500" style="stroke:black;stroke-width:2" />
<text x="4568.0" y="495" text-anchor="middle" style="font-family: Arial, Helvetica, sans-serif"> {{x38,x606,NxXID(3),PurchAmt(1),NxAuthCode(5)}_inv(sk(a))}_(pk(x38))</text>
<line x1="3062.0" y1="550" x2="6074.0" y2="550" style="stroke:black;stroke-width:2" />
<line x1="3072.0" y1="540" x2="3062.0" y2="550" style="stroke:black;stroke-width:2" />
<line x1="3072.0" y1="560" x2="3062.0" y2="550" style="stroke:black;stroke-width:2" />
<text x="4568.0" y="545" text-anchor="middle" style="font-family: Arial, Helvetica, sans-serif"> {x36,x606,NxXID(3),x408,hash(PurchAmt(1)),NxAuthCode(5)}_inv(sk(x38))</text>
<line x1="12098.0" y1="600" x2="12098.0" y2="600" style="stroke:black;stroke-width:2" />
<line x1="12108.0" y1="590" x2="12098.0" y2="600" style="stroke:black;stroke-width:2" />
<line x1="12108.0" y1="610" x2="12098.0" y2="600" style="stroke:black;stroke-width:2" />
<text x="12098.0" y="595" text-anchor="middle" style="font-family: Arial, Helvetica, sans-serif">i can produce secret OrderDesc(1)</text>
</svg>