<svg xmlns="http://www.w3.org/2000/svg" version="1.1">
<rect x="0" y="0" width="100" height="20" style="fill:white;stroke:black;stroke-width:2"/>
<text x="50" y="15" text-anchor="middle" style="font-family: Arial, Helvetica, sans-serif">
(x501,1)</text>
<line x1="50" y1="20" x2="50" y2="350" style="stroke:black;stroke-width:2" />
<rect x="25" y="350" width="50" height="10" style="fill:black;stroke:black;stroke-width:2"/>
<rect x="552" y="0" width="100" height="20" style="fill:white;stroke:black;stroke-width:2"/>
<text x="602" y="15" text-anchor="middle" style="font-family: Arial, Helvetica, sans-serif">
i</text>
<line x1="602" y1="20" x2="602" y2="350" style="stroke:black;stroke-width:2" />
<rect x="577" y="350" width="50" height="10" style="fill:black;stroke:black;stroke-width:2"/>
<rect x="1104" y="0" width="100" height="20" style="fill:white;stroke:black;stroke-width:2"/>
<text x="1154" y="15" text-anchor="middle" style="font-family: Arial, Helvetica, sans-serif">
(s,1)</text>
<line x1="1154" y1="20" x2="1154" y2="350" style="stroke:black;stroke-width:2" />
<rect x="1129" y="350" width="50" height="10" style="fill:black;stroke:black;stroke-width:2"/>
<line x1="50.0" y1="50" x2="602.0" y2="50" style="stroke:black;stroke-width:2" />
<line x1="592.0" y1="40" x2="602.0" y2="50" style="stroke:black;stroke-width:2" />
<line x1="592.0" y1="60" x2="602.0" y2="50" style="stroke:black;stroke-width:2" />
<text x="326.0" y="45" text-anchor="middle" style="font-family: Arial, Helvetica, sans-serif"> RA(1),Text1(1)</text>
<line x1="602.0" y1="100" x2="1154.0" y2="100" style="stroke:black;stroke-width:2" />
<line x1="1144.0" y1="90" x2="1154.0" y2="100" style="stroke:black;stroke-width:2" />
<line x1="1144.0" y1="110" x2="1154.0" y2="100" style="stroke:black;stroke-width:2" />
<text x="878.0" y="95" text-anchor="middle" style="font-family: Arial, Helvetica, sans-serif"> RA(1),x308,i,x309</text>
<line x1="602.0" y1="150" x2="1154.0" y2="150" style="stroke:black;stroke-width:2" />
<line x1="612.0" y1="140" x2="602.0" y2="150" style="stroke:black;stroke-width:2" />
<line x1="612.0" y1="160" x2="602.0" y2="150" style="stroke:black;stroke-width:2" />
<text x="878.0" y="145" text-anchor="middle" style="font-family: Arial, Helvetica, sans-serif"> Text5(2),{|RA(1),KAB(2),i,Text4(2)|}_(shk(x501,s)),{|x308,KAB(2),x501,Text3(2)|}_(shk(i,s))</text>
<line x1="50.0" y1="200" x2="602.0" y2="200" style="stroke:black;stroke-width:2" />
<line x1="60.0" y1="190" x2="50.0" y2="200" style="stroke:black;stroke-width:2" />
<line x1="60.0" y1="210" x2="50.0" y2="200" style="stroke:black;stroke-width:2" />
<text x="326.0" y="195" text-anchor="middle" style="font-family: Arial, Helvetica, sans-serif"> x408,{|RA(1),KAB(2),i,Text4(2)|}_(shk(x501,s)),{|x411,RA(1),x412|}_KAB(2)</text>
<line x1="50.0" y1="250" x2="602.0" y2="250" style="stroke:black;stroke-width:2" />
<line x1="592.0" y1="240" x2="602.0" y2="250" style="stroke:black;stroke-width:2" />
<line x1="592.0" y1="260" x2="602.0" y2="250" style="stroke:black;stroke-width:2" />
<text x="326.0" y="245" text-anchor="middle" style="font-family: Arial, Helvetica, sans-serif"> Text9(3),{|RA(1),x411,Text8(3)|}_KAB(2)</text>
</svg>