<svg xmlns="http://www.w3.org/2000/svg" version="1.1">
<rect x="0" y="0" width="100" height="20" style="fill:white;stroke:black;stroke-width:2"/>
<text x="50" y="15" text-anchor="middle" style="font-family: Arial, Helvetica, sans-serif">
(x401,1)</text>
<line x1="50" y1="20" x2="50" y2="250" style="stroke:black;stroke-width:2" />
<rect x="25" y="250" width="50" height="10" style="fill:black;stroke:black;stroke-width:2"/>
<rect x="60" y="0" width="100" height="20" style="fill:white;stroke:black;stroke-width:2"/>
<text x="110" y="15" text-anchor="middle" style="font-family: Arial, Helvetica, sans-serif">
i</text>
<line x1="110" y1="20" x2="110" y2="250" style="stroke:black;stroke-width:2" />
<rect x="85" y="250" width="50" height="10" style="fill:black;stroke:black;stroke-width:2"/>
<line x1="50.0" y1="50" x2="110.0" y2="50" style="stroke:black;stroke-width:2" />
<line x1="100.0" y1="40" x2="110.0" y2="50" style="stroke:black;stroke-width:2" />
<line x1="100.0" y1="60" x2="110.0" y2="50" style="stroke:black;stroke-width:2" />
<text x="80.0" y="45" text-anchor="middle" style="font-family: Arial, Helvetica, sans-serif"> x401,x25</text>
<line x1="50.0" y1="100" x2="110.0" y2="100" style="stroke:black;stroke-width:2" />
<line x1="60.0" y1="90" x2="50.0" y2="100" style="stroke:black;stroke-width:2" />
<line x1="60.0" y1="110" x2="50.0" y2="100" style="stroke:black;stroke-width:2" />
<text x="80.0" y="95" text-anchor="middle" style="font-family: Arial, Helvetica, sans-serif"> x306</text>
<line x1="50.0" y1="150" x2="110.0" y2="150" style="stroke:black;stroke-width:2" />
<line x1="100.0" y1="140" x2="110.0" y2="150" style="stroke:black;stroke-width:2" />
<line x1="100.0" y1="160" x2="110.0" y2="150" style="stroke:black;stroke-width:2" />
<text x="80.0" y="145" text-anchor="middle" style="font-family: Arial, Helvetica, sans-serif"> x401,x306</text>
</svg>