<svg xmlns="http://www.w3.org/2000/svg" version="1.1">
<rect x="0" y="0" width="100" height="20" style="fill:white;stroke:black;stroke-width:2"/>
<text x="50" y="15" text-anchor="middle" style="font-family: Arial, Helvetica, sans-serif">
(x20,1)</text>
<line x1="50" y1="20" x2="50" y2="550" style="stroke:black;stroke-width:2" />
<rect x="25" y="550" width="50" height="10" style="fill:black;stroke:black;stroke-width:2"/>
<rect x="168" y="0" width="100" height="20" style="fill:white;stroke:black;stroke-width:2"/>
<text x="218" y="15" text-anchor="middle" style="font-family: Arial, Helvetica, sans-serif">
i</text>
<line x1="218" y1="20" x2="218" y2="550" style="stroke:black;stroke-width:2" />
<rect x="193" y="550" width="50" height="10" style="fill:black;stroke:black;stroke-width:2"/>
<rect x="336" y="0" width="100" height="20" style="fill:white;stroke:black;stroke-width:2"/>
<text x="386" y="15" text-anchor="middle" style="font-family: Arial, Helvetica, sans-serif">
(x28,1)</text>
<line x1="386" y1="20" x2="386" y2="550" style="stroke:black;stroke-width:2" />
<rect x="361" y="550" width="50" height="10" style="fill:black;stroke:black;stroke-width:2"/>
<rect x="504" y="0" width="100" height="20" style="fill:white;stroke:black;stroke-width:2"/>
<text x="554" y="15" text-anchor="middle" style="font-family: Arial, Helvetica, sans-serif">
icanproducesecretNxNB(2)</text>
<line x1="554" y1="20" x2="554" y2="550" style="stroke:black;stroke-width:2" />
<rect x="529" y="550" width="50" height="10" style="fill:black;stroke:black;stroke-width:2"/>
<line x1="50.0" y1="50" x2="218.0" y2="50" style="stroke:black;stroke-width:2" />
<line x1="208.0" y1="40" x2="218.0" y2="50" style="stroke:black;stroke-width:2" />
<line x1="208.0" y1="60" x2="218.0" y2="50" style="stroke:black;stroke-width:2" />
<text x="134.0" y="45" text-anchor="middle" style="font-family: Arial, Helvetica, sans-serif"> {NxNA(1),x20}_(pk(i))</text>
<line x1="218.0" y1="100" x2="386.0" y2="100" style="stroke:black;stroke-width:2" />
<line x1="376.0" y1="90" x2="386.0" y2="100" style="stroke:black;stroke-width:2" />
<line x1="376.0" y1="110" x2="386.0" y2="100" style="stroke:black;stroke-width:2" />
<text x="302.0" y="95" text-anchor="middle" style="font-family: Arial, Helvetica, sans-serif"> {NxNA(1),x20}_(pk(x28))</text>
<line x1="218.0" y1="150" x2="386.0" y2="150" style="stroke:black;stroke-width:2" />
<line x1="228.0" y1="140" x2="218.0" y2="150" style="stroke:black;stroke-width:2" />
<line x1="228.0" y1="160" x2="218.0" y2="150" style="stroke:black;stroke-width:2" />
<text x="302.0" y="145" text-anchor="middle" style="font-family: Arial, Helvetica, sans-serif"> {NxNA(1),NxNB(2)}_(pk(x20))</text>
<line x1="50.0" y1="200" x2="218.0" y2="200" style="stroke:black;stroke-width:2" />
<line x1="60.0" y1="190" x2="50.0" y2="200" style="stroke:black;stroke-width:2" />
<line x1="60.0" y1="210" x2="50.0" y2="200" style="stroke:black;stroke-width:2" />
<text x="134.0" y="195" text-anchor="middle" style="font-family: Arial, Helvetica, sans-serif"> {NxNA(1),NxNB(2)}_(pk(x20))</text>
<line x1="50.0" y1="250" x2="218.0" y2="250" style="stroke:black;stroke-width:2" />
<line x1="208.0" y1="240" x2="218.0" y2="250" style="stroke:black;stroke-width:2" />
<line x1="208.0" y1="260" x2="218.0" y2="250" style="stroke:black;stroke-width:2" />
<text x="134.0" y="245" text-anchor="middle" style="font-family: Arial, Helvetica, sans-serif"> {NxNB(2)}_(pk(i))</text>
<line x1="218.0" y1="300" x2="386.0" y2="300" style="stroke:black;stroke-width:2" />
<line x1="376.0" y1="290" x2="386.0" y2="300" style="stroke:black;stroke-width:2" />
<line x1="376.0" y1="310" x2="386.0" y2="300" style="stroke:black;stroke-width:2" />
<text x="302.0" y="295" text-anchor="middle" style="font-family: Arial, Helvetica, sans-serif"> {NxNB(2)}_(pk(x28))</text>
<line x1="554.0" y1="350" x2="554.0" y2="350" style="stroke:black;stroke-width:2" />
<line x1="564.0" y1="340" x2="554.0" y2="350" style="stroke:black;stroke-width:2" />
<line x1="564.0" y1="360" x2="554.0" y2="350" style="stroke:black;stroke-width:2" />
<text x="554.0" y="345" text-anchor="middle" style="font-family: Arial, Helvetica, sans-serif">i can produce secret NxNB(2)</text>
</svg>